<svg width="28" height="28" viewBox="0 0 28 28" fill="none" xmlns="http://www.w3.org/2000/svg">
<path fill-rule="evenodd" clip-rule="evenodd" d="M0.792893 0.792894C1.18342 0.402368 1.81658 0.402369 2.20711 0.792894L14 12.5858L25.7929 0.792894C26.1834 0.40237 26.8166 0.40237 27.2071 0.792894C27.5976 1.18342 27.5976 1.81658 27.2071 2.20711L15.4142 14L27.2071 25.7929C27.5976 26.1834 27.5976 26.8166 27.2071 27.2071C26.8166 27.5976 26.1834 27.5976 25.7929 27.2071L14 15.4142L2.20711 27.2071C1.81658 27.5976 1.18342 27.5976 0.792893 27.2071C0.402369 26.8166 0.402369 26.1834 0.792893 25.7929L12.5858 14L0.792893 2.20711C0.402369 1.81658 0.402369 1.18342 0.792893 0.792894Z" fill="black"/>
</svg>
