<svg width="65" height="65" viewBox="0 0 65 65" fill="none" xmlns="http://www.w3.org/2000/svg">
<path d="M45.3189 10.2017C42.7706 7.63995 39.3842 13.3313 38.0796 17.8398C36.3222 17.4681 34.4836 17.272 32.591 17.272C30.6173 17.272 28.7044 17.4883 26.8793 17.8871C25.5478 13.4057 22.2086 7.86977 19.6874 10.4045C10.4541 19.6919 9.01436 34.9951 10.0283 37.6042C10.7921 47.5607 20.5999 55.4354 32.591 55.4354C45.0823 55.4354 55.2078 46.8916 55.2078 36.3537C55.2078 36.2996 55.2011 36.2523 55.2011 36.1983C55.6066 31.6695 53.5923 18.5225 45.3189 10.2017ZM35.7071 43.0793L34.0578 44.884C33.2196 45.8033 31.7664 45.8033 30.9282 44.884L29.2789 43.0793C28.0352 41.7206 29.0018 39.5306 30.8403 39.5306H34.1457C35.9842 39.5306 36.9508 41.7206 35.7071 43.0793Z" fill="#AF542C" fill-opacity="0.6"/>
</svg>
