<svg width="25" height="25" viewBox="0 0 25 25" fill="none" xmlns="http://www.w3.org/2000/svg">
<path fill-rule="evenodd" clip-rule="evenodd" d="M5.89645 5.89645C6.09171 5.70118 6.40829 5.70118 6.60355 5.89645L12.5 11.7929L18.3964 5.89645C18.5917 5.70118 18.9083 5.70118 19.1036 5.89645C19.2988 6.09171 19.2988 6.40829 19.1036 6.60355L13.2071 12.5L19.1036 18.3964C19.2988 18.5917 19.2988 18.9083 19.1036 19.1036C18.9083 19.2988 18.5917 19.2988 18.3964 19.1036L12.5 13.2071L6.60355 19.1036C6.40829 19.2988 6.09171 19.2988 5.89645 19.1036C5.70118 18.9083 5.70118 18.5917 5.89645 18.3964L11.7929 12.5L5.89645 6.60355C5.70118 6.40829 5.70118 6.09171 5.89645 5.89645Z" fill="black"/>
</svg>
