<svg width="31" height="31" viewBox="0 0 31 31" fill="none" xmlns="http://www.w3.org/2000/svg">
<path d="M10.0996 11.9H11.2996M11.2996 11.9H20.8996M11.2996 11.9L11.2996 20.3C11.2996 20.6183 11.426 20.9235 11.6511 21.1485C11.8761 21.3736 12.1813 21.5 12.4996 21.5H18.4996C18.8179 21.5 19.1231 21.3736 19.3481 21.1485C19.5732 20.9235 19.6996 20.6183 19.6996 20.3V11.9L11.2996 11.9ZM13.0996 11.9V10.7C13.0996 10.3817 13.226 10.0765 13.4511 9.85147C13.6761 9.62643 13.9813 9.5 14.2996 9.5H16.6996C17.0179 9.5 17.3231 9.62643 17.5481 9.85147C17.7732 10.0765 17.8996 10.3817 17.8996 10.7V11.9M14.2996 14.9V18.5M16.6996 14.9V18.5" stroke="#F26B09" stroke-linecap="round" stroke-linejoin="round"/>
</svg>
