<svg width="65" height="65" viewBox="0 0 65 65" fill="none" xmlns="http://www.w3.org/2000/svg">
<path d="M54.5447 17.2758C53.1928 13.7562 50.3084 11.5361 47.8668 11.9965C46.3227 11.8216 44.5862 11.9906 42.8381 12.5675C40.7695 13.2493 39.0505 14.3739 37.8676 15.6908C36.236 15.0149 34.4821 14.6303 32.6116 14.6303C30.7702 14.6303 29.0105 15.0324 27.3672 15.7549C26.1843 14.3215 24.3721 13.0745 22.1579 12.3519C20.4097 11.775 18.6733 11.606 17.1291 11.7809C14.6817 11.3205 11.7973 13.5406 10.4513 17.0602C8.99452 20.8652 9.88023 24.7461 12.4325 25.725C14.268 26.4301 16.4648 25.4337 18.0964 23.4117C18.2246 23.4583 18.347 23.5107 18.481 23.5515C18.58 23.5865 18.6791 23.6098 18.7723 23.6389C14.1981 30.9111 12.887 40.8171 17.2456 46.4111C24.5411 55.7635 41.2182 56.0898 48.4612 44.1793C51.6428 38.9466 50.5881 30.3167 46.6373 23.7322C46.7247 23.6972 46.818 23.6681 46.9054 23.6331C48.537 25.6609 50.7338 26.6515 52.5693 25.9464C55.1215 24.9617 56.0073 21.0809 54.5447 17.2758ZM32.3261 43.6141C30.7877 43.5267 27.9441 39.9081 29.3135 38.597C30.6828 37.2859 34.0159 36.9421 35.4902 38.6203C36.9586 40.2868 33.8644 43.7015 32.3261 43.6141Z" fill="#AF542C" fill-opacity="0.6"/>
</svg>
