<svg width="26" height="24" viewBox="0 0 26 24" fill="none" xmlns="http://www.w3.org/2000/svg">
<path fill-rule="evenodd" clip-rule="evenodd" d="M15.6251 0.665047C16.4957 0.272151 17.4327 0.0683594 18.3817 0.0683594C19.3306 0.0683594 20.2676 0.272152 21.1382 0.665047C22.0085 1.0578 22.7925 1.63047 23.4484 2.34519C24.1043 3.0593 24.6199 3.902 24.9703 4.82292C25.3206 5.74394 25.5 6.7282 25.5 7.72022C25.5 8.71225 25.3206 9.6965 24.9703 10.6175C24.6199 11.5385 24.1042 12.3813 23.4482 13.0955L13.8368 23.5642C13.6216 23.7986 13.3179 23.932 12.9997 23.932C12.6815 23.932 12.3778 23.7986 12.1626 23.5642L2.55119 13.0955C1.22832 11.6546 0.5 9.71961 0.5 7.72022C0.5 5.72083 1.22832 3.78586 2.55119 2.34499C3.87706 0.900869 5.69715 0.0689927 7.61774 0.0689927C9.53833 0.0689927 11.3584 0.900869 12.6843 2.34499L12.9997 2.68856L13.315 2.34519C13.9708 1.63056 14.755 1.05776 15.6251 0.665047ZM18.3817 2.34109C17.7596 2.34109 17.1409 2.47444 16.56 2.73658C15.9789 2.99886 15.4442 3.38628 14.9895 3.88185L13.8368 5.13734C13.6216 5.37175 13.3179 5.50518 12.9997 5.50518C12.6815 5.50518 12.3778 5.37175 12.1626 5.13734L11.0101 3.88204C10.0925 2.88262 8.86986 2.34172 7.61774 2.34172C6.36561 2.34172 5.14293 2.88262 4.22534 3.88204C3.30477 4.88472 2.77273 6.26391 2.77273 7.72022C2.77273 9.17653 3.30477 10.5557 4.22534 11.5584L12.9997 21.1154L21.7741 11.5584C22.2292 11.0629 22.5951 10.4692 22.8461 9.80943C23.0971 9.14958 23.2273 8.4394 23.2273 7.72022C23.2273 7.00104 23.0971 6.29086 22.8461 5.63102C22.5951 4.97124 22.2294 4.37775 21.7743 3.88224C21.3195 3.38667 20.7845 2.99887 20.2033 2.73658C19.6225 2.47444 19.0038 2.34109 18.3817 2.34109Z" fill="#442920"/>
</svg>
