<svg width="50" height="50" viewBox="0 0 50 50" fill="none" xmlns="http://www.w3.org/2000/svg">
<path d="M33.4578 17.1797C32.9691 16.6472 32.3889 16.2248 31.7503 15.9366C31.1117 15.6483 30.4272 15.5 29.7359 15.5C29.0446 15.5 28.3601 15.6483 27.7215 15.9366C27.0829 16.2248 26.5026 16.6472 26.0139 17.1797L24.9997 18.2844L23.9855 17.1797C22.9984 16.1046 21.6596 15.5006 20.2636 15.5006C18.8676 15.5006 17.5288 16.1046 16.5417 17.1797C15.5546 18.2549 15 19.7131 15 21.2336C15 22.7541 15.5546 24.2124 16.5417 25.2875L17.5559 26.3922L24.9997 34.5L32.4436 26.3922L33.4578 25.2875C33.9467 24.7553 34.3346 24.1233 34.5992 23.4277C34.8638 22.7321 35 21.9866 35 21.2336C35 20.4807 34.8638 19.7352 34.5992 19.0396C34.3346 18.344 33.9467 17.712 33.4578 17.1797Z" fill="#F26B09" stroke="#F26B09" stroke-width="2" stroke-linecap="round" stroke-linejoin="round"/>
</svg>
