<svg width="65" height="65" viewBox="0 0 65 65" fill="none" xmlns="http://www.w3.org/2000/svg">
<path d="M54.7265 27.4562C54.6774 27.2199 54.5808 26.9972 54.443 26.8031C54.3051 26.609 54.1294 26.4479 53.9273 26.3306L49.0994 23.5259C48.8322 22.9838 48.5402 22.4535 48.2262 21.9404L48.3192 16.1578C48.3231 15.916 48.2777 15.676 48.1859 15.454C48.0941 15.232 47.958 15.0331 47.7869 14.8705C45.3832 12.5827 42.5357 10.865 39.4392 9.83486C39.2191 9.76117 38.9866 9.73744 38.757 9.76527C38.5275 9.79309 38.3063 9.87182 38.1082 9.99621L33.3731 12.9694C32.7906 12.9404 32.2055 12.9399 31.6245 12.968L26.8855 9.99226C26.6872 9.86783 26.4659 9.78908 26.2363 9.76127C26.0067 9.73347 25.774 9.75725 25.5539 9.83102C22.4587 10.8657 19.6135 12.5874 17.2127 14.8786C17.0417 15.0412 16.9058 15.2401 16.814 15.462C16.7223 15.684 16.6769 15.9238 16.6808 16.1656L16.7737 21.9434C16.4588 22.4565 16.1658 22.9865 15.8982 23.5274L11.0661 26.3345C10.864 26.4519 10.6882 26.6131 10.5504 26.8073C10.4126 27.0015 10.316 27.2242 10.267 27.4606C9.57548 30.783 9.57771 34.2225 10.2735 37.5438C10.3226 37.7801 10.4192 38.0028 10.5571 38.1968C10.6949 38.3909 10.8706 38.5521 11.0727 38.6694L15.9006 41.4741C16.1679 42.0161 16.4598 42.5465 16.7738 43.0596L16.6808 48.8421C16.6769 49.084 16.7223 49.324 16.8141 49.546C16.9059 49.7679 17.042 49.9669 17.2131 50.1295C19.6168 52.4173 22.4643 54.135 25.5608 55.1651C25.7809 55.2388 26.0134 55.2625 26.2429 55.2347C26.4725 55.2069 26.6937 55.1282 26.8918 55.0038L31.6269 52.0306C32.2093 52.0595 32.7943 52.06 33.3755 52.032L38.1145 55.0077C38.3127 55.1322 38.5341 55.2109 38.7637 55.2387C38.9933 55.2665 39.226 55.2427 39.4461 55.169C42.5413 54.1343 45.3865 52.4126 47.7873 50.1214C47.9583 49.9588 48.0942 49.7599 48.186 49.5379C48.2777 49.316 48.3231 49.0761 48.3192 48.8344L48.2263 43.0565C48.5412 42.5435 48.8342 42.0135 49.1018 41.4726L53.9339 38.6655C54.136 38.548 54.3118 38.3869 54.4496 38.1927C54.5874 37.9985 54.684 37.7757 54.733 37.5394C55.4245 34.217 55.4223 30.7775 54.7265 27.4562ZM32.5 41.8499C30.7329 41.8499 29.0055 41.3016 27.5362 40.2742C26.0668 39.2468 24.9217 37.7865 24.2454 36.0781C23.5692 34.3696 23.3922 32.4896 23.737 30.6759C24.0817 28.8622 24.9327 27.1962 26.1822 25.8886C27.4318 24.581 29.0238 23.6905 30.7569 23.3297C32.4901 22.969 34.2866 23.1541 35.9192 23.8618C37.5518 24.5695 38.9472 25.7679 39.9289 27.3055C40.9107 28.843 41.4347 30.6508 41.4347 32.5C41.432 34.9789 40.4898 37.3555 38.8148 39.1083C37.1398 40.8612 34.8688 41.8471 32.5 41.8499Z" fill="#B25829" fill-opacity="0.6"/>
</svg>
