<svg width="31" height="31" viewBox="0 0 31 31" fill="none" xmlns="http://www.w3.org/2000/svg">
<path d="M20.5747 10.8078C20.2815 10.4883 19.9333 10.2349 19.5502 10.0619C19.167 9.88899 18.7563 9.79999 18.3415 9.79999C17.9268 9.79999 17.5161 9.88899 17.1329 10.0619C16.7497 10.2349 16.4016 10.4883 16.1084 10.8078L15.4998 11.4706L14.8913 10.8078C14.2991 10.1627 13.4958 9.80032 12.6582 9.80032C11.8206 9.80032 11.0173 10.1627 10.425 10.8078C9.83273 11.4529 9.5 12.3279 9.5 13.2402C9.5 14.1525 9.83273 15.0274 10.425 15.6725L11.0335 16.3353L15.4998 21.2L19.9662 16.3353L20.5747 15.6725C20.868 15.3531 21.1007 14.974 21.2595 14.5566C21.4183 14.1393 21.5 13.6919 21.5 13.2402C21.5 12.7884 21.4183 12.3411 21.2595 11.9237C21.1007 11.5064 20.868 11.1272 20.5747 10.8078V10.8078Z" stroke="#F26B09" stroke-linecap="round" stroke-linejoin="round"/>
</svg>
