<svg width="37" height="26" viewBox="0 0 37 26" fill="none" xmlns="http://www.w3.org/2000/svg">
<path fill-rule="evenodd" clip-rule="evenodd" d="M6.30167 0.4375H6.34297H30.6596H30.7009H30.7009C31.5059 0.437488 32.1703 0.437478 32.7115 0.481695C33.2736 0.52762 33.7903 0.626185 34.2756 0.873475C35.0282 1.25697 35.6402 1.86889 36.0237 2.62154C36.271 3.10687 36.3695 3.62358 36.4154 4.18568C36.4597 4.72684 36.4596 5.39116 36.4596 6.19607V6.19618V6.2375V19.7625V19.8038V19.8039C36.4596 20.6088 36.4597 21.2732 36.4154 21.8143C36.3695 22.3764 36.271 22.8931 36.0237 23.3785C35.6402 24.1311 35.0282 24.743 34.2756 25.1265C33.7903 25.3738 33.2736 25.4724 32.7115 25.5183C32.1703 25.5625 31.5059 25.5625 30.701 25.5625H30.7009H30.6596H6.34297H6.30174H6.30163C5.49668 25.5625 4.83233 25.5625 4.29114 25.5183C3.72905 25.4724 3.21234 25.3738 2.72701 25.1265C1.97436 24.743 1.36244 24.1311 0.978944 23.3785C0.731653 22.8931 0.633089 22.3764 0.587164 21.8143C0.542947 21.2731 0.542957 20.6088 0.542969 19.8038V19.8038V19.7625V6.2375V6.1962V6.19618C0.542957 5.39122 0.542947 4.72687 0.587164 4.18568C0.633089 3.62358 0.731653 3.10687 0.978944 2.62154C1.36244 1.86889 1.97436 1.25697 2.72701 0.873475C3.21234 0.626185 3.72905 0.52762 4.29114 0.481695C4.83233 0.437478 5.49669 0.437488 6.30165 0.4375H6.30167ZM4.45401 2.47505C4.01559 2.51087 3.79139 2.5758 3.63499 2.65549C3.25867 2.84724 2.9527 3.1532 2.76096 3.52952C2.68127 3.68592 2.61634 3.91012 2.58052 4.34854C2.54375 4.79863 2.54297 5.38092 2.54297 6.2375V19.7625C2.54297 20.6191 2.54375 21.2014 2.58052 21.6515C2.61634 22.0899 2.68127 22.3141 2.76096 22.4705C2.9527 22.8468 3.25867 23.1528 3.63499 23.3445C3.79139 23.4242 4.01559 23.4891 4.45401 23.5249C4.9041 23.5617 5.48639 23.5625 6.34297 23.5625H11.3346V2.4375H6.34297C5.48639 2.4375 4.9041 2.43828 4.45401 2.47505ZM23.668 23.5625H13.3346V2.4375H23.668V23.5625ZM25.668 23.5625H30.6596C31.5162 23.5625 32.0985 23.5617 32.5486 23.5249C32.987 23.4891 33.2112 23.4242 33.3676 23.3445C33.7439 23.1528 34.0499 22.8468 34.2416 22.4705C34.3213 22.3141 34.3863 22.0899 34.4221 21.6515C34.4589 21.2014 34.4596 20.6191 34.4596 19.7625V6.2375C34.4596 5.38092 34.4589 4.79863 34.4221 4.34854C34.3863 3.91012 34.3213 3.68592 34.2416 3.52952C34.0499 3.1532 33.7439 2.84724 33.3676 2.65549C33.2112 2.5758 32.987 2.51087 32.5486 2.47505C32.0985 2.43828 31.5162 2.4375 30.6596 2.4375H25.668V8.375C28.2214 8.37606 30.291 10.4463 30.291 13C30.291 15.5537 28.2214 17.6239 25.668 17.625V23.5625ZM6.70899 13C6.70899 15.5543 8.77967 17.625 11.334 17.625V8.375C8.77967 8.375 6.70899 10.4457 6.70899 13Z" fill="#203B44"/>
</svg>
