<svg width="51" height="50" viewBox="0 0 51 50" fill="none" xmlns="http://www.w3.org/2000/svg">
<g clip-path="url(#clip0_741_5980)">
<rect width="50" height="50" transform="translate(0.5)" fill="white"/>
<path d="M50.5 29.3005H47.9655V24.327H45.525V29.3005H42.9905V22.21H50.5V29.3005Z" fill="black"/>
<path fill-rule="evenodd" clip-rule="evenodd" d="M37.7851 29.554C40.054 29.554 41.7389 28.1644 41.7389 26.0578C41.7389 24.0188 40.4958 22.695 38.4183 22.695C37.4594 22.695 36.6683 23.0321 36.0724 23.6138C36.2147 22.4115 37.2325 21.5338 38.3532 21.5338C38.6118 21.5338 40.5589 21.5297 40.5589 21.5297L41.66 19.425C41.66 19.425 39.2154 19.4806 38.0791 19.4806C35.4826 19.5258 33.7288 21.8832 33.7288 24.7465C33.7288 28.0822 35.4393 29.554 37.7851 29.554ZM37.7989 24.5592C38.6413 24.5592 39.2254 25.1121 39.2254 26.0575C39.2254 26.9084 38.7064 27.6095 37.7989 27.6115C36.9308 27.6115 36.3468 26.9619 36.3468 26.072C36.3468 25.1264 36.9308 24.5592 37.7989 24.5592Z" fill="black"/>
<path d="M31.6662 26.9268C31.6662 26.9268 31.0676 27.2714 30.1736 27.3367C29.1459 27.3671 28.2302 26.7187 28.2302 25.5667C28.2302 24.443 29.0382 23.7989 30.1478 23.7989C30.8281 23.7989 31.7281 24.2699 31.7281 24.2699C31.7281 24.2699 32.3867 23.0628 32.7278 22.4591C32.1031 21.9862 31.2711 21.7269 30.3033 21.7269C27.861 21.7269 25.9692 23.3175 25.9692 25.5525C25.9692 27.8159 27.7472 29.3696 30.3033 29.3227C31.0178 29.2961 32.0034 29.0455 32.6042 28.6601L31.6662 26.9268Z" fill="black"/>
<path d="M0.5 16.3123L4.01585 22.5896V26.4186L0.504113 32.6836L0.5 16.3123Z" fill="#5B57A2"/>
<path d="M13.9994 20.3054L17.2939 18.2884L24.0363 18.2822L13.9994 24.4239V20.3054Z" fill="#D90751"/>
<path d="M13.9808 16.2754L13.9994 24.5863L10.4754 22.4234V10L13.9808 16.2754Z" fill="#FAB718"/>
<path d="M24.0363 18.2822L17.2939 18.2884L13.9808 16.2754L10.4754 10L24.0363 18.2822Z" fill="#ED6F26"/>
<path d="M13.9994 32.7184V28.6861L10.4754 26.5643L10.4773 39L13.9994 32.7184Z" fill="#63B22F"/>
<path d="M17.2857 30.7198L4.01585 22.5896L0.5 16.3123L24.022 30.7116L17.2857 30.7198Z" fill="#1487C9"/>
<path d="M10.4775 39L13.9994 32.7184L17.2857 30.7198L24.022 30.7116L10.4775 39Z" fill="#017F36"/>
<path d="M0.504113 32.6836L10.5042 26.5646L7.14218 24.5041L4.01585 26.4186L0.504113 32.6836Z" fill="#984995"/>
</g>
<defs>
<clipPath id="clip0_741_5980">
<rect width="50" height="50" fill="white" transform="translate(0.5)"/>
</clipPath>
</defs>
</svg>
