<svg width="51" height="50" viewBox="0 0 51 50" fill="none" xmlns="http://www.w3.org/2000/svg">
<g clip-path="url(#clip0_741_5919)">
<path d="M41.1914 22.3242C41.1914 14.3351 41.2586 7.73144 41.3409 7.64944C41.4228 7.56721 42.7335 7.5 44.2534 7.5H47.0165V22.1747V36.8495H44.104H41.1914V22.3242Z" fill="#151F35"/>
<path d="M28.8691 38.8657V24.0789V9.29224H31.7816H34.6942V24.0789V38.8657H31.7816H28.8691Z" fill="#151F35"/>
<path d="M16.4354 40.5461L16.3779 25.9273L16.3203 11.3086H19.348H22.3757L22.3181 25.9273L22.2605 40.5461H19.348H16.4354Z" fill="#151F35"/>
<path d="M4.00195 42.4505V27.7758V13.1011H6.9145H9.82703V27.7758V42.4505H6.9145H4.00195Z" fill="#151F35"/>
</g>
<defs>
<clipPath id="clip0_741_5919">
<rect width="43.1417" height="35" fill="white" transform="translate(3.92969 7.5)"/>
</clipPath>
</defs>
</svg>
