<svg width="241" height="44" viewBox="0 0 241 44" fill="none" xmlns="http://www.w3.org/2000/svg">
<path d="M47.2006 4.55588C47.2006 6.94521 43.3393 10.3585 35.6166 14.7959L34.6566 15.3399C38.006 15.7452 39.6806 17.3239 39.6806 20.0759C39.6806 21.4839 39.126 22.9985 38.0166 24.6199C38.6566 25.0039 38.9126 25.4199 38.7846 25.8679C38.7206 26.1025 38.5926 26.1665 38.4006 26.0599C38.0166 25.8679 37.6433 25.7292 37.2806 25.6439C35.382 28.0759 32.5873 30.4545 28.8966 32.7799C25.4406 34.9772 21.6966 36.7799 17.6646 38.1879C13.6326 39.6172 9.93129 40.3319 6.56062 40.3319C4.87529 40.3319 3.53129 40.0119 2.52862 39.3719C1.50462 38.7532 0.992625 37.9212 0.992625 36.8759C0.992625 34.8919 2.96596 32.8332 6.91262 30.6999C7.55262 29.3985 9.02463 27.3399 11.3286 24.5239C10.7313 24.4599 10.3473 24.2785 10.1766 23.9799C9.83529 23.3825 10.1766 22.6892 11.2006 21.8999C12.2246 21.0892 13.7286 20.2572 15.7126 19.4039C20.406 14.2199 24.63 10.1132 28.3846 7.08388C29.4513 6.18788 30.2086 5.98521 30.6566 6.47588C30.7633 6.58254 30.8486 6.75321 30.9126 6.98788C30.998 7.20121 31.03 7.39321 31.0086 7.56388C30.9873 7.73454 30.902 7.81988 30.7526 7.81988C30.262 7.81988 29.4833 8.28921 28.4166 9.22788C25.7073 11.5745 22.6673 14.5079 19.2966 18.0279C23.8833 16.4919 27.894 15.5852 31.3286 15.3079L34.7206 13.4519C38.1126 11.4892 40.7366 9.72921 42.5926 8.17188C44.47 6.61454 45.4086 5.40921 45.4086 4.55588C45.4086 3.83054 45.1313 3.32921 44.5766 3.05188C44.0433 2.75321 43.062 2.60388 41.6326 2.60388C37.5793 2.60388 32.598 3.75588 26.6886 6.05988C22.6566 7.65988 19.286 9.40921 16.5766 11.3079C13.8886 13.1852 12.5446 14.7105 12.5446 15.8839C12.6726 16.2039 12.662 16.5025 12.5126 16.7799C12.3633 17.0572 12.1286 17.1959 11.8086 17.1959C11.1046 17.1959 10.7526 16.7585 10.7526 15.8839C10.7526 14.3052 12.1606 12.4919 14.9766 10.4439C17.814 8.37454 21.5046 6.44388 26.0486 4.65188C32.1713 2.26254 37.366 1.06788 41.6326 1.06788C43.5313 1.06788 44.9286 1.34521 45.8246 1.89988C46.742 2.45454 47.2006 3.33988 47.2006 4.55588ZM33.3446 16.7799C32.7473 16.7799 32.2673 16.8012 31.9046 16.8439C24.0753 20.9825 17.9953 23.4785 13.6646 24.3319C11.9366 26.4225 10.6566 28.0652 9.82463 29.2599C11.766 28.3639 13.974 27.5319 16.4486 26.7639C22.9553 24.6945 28.5873 23.6599 33.3446 23.6599C34.39 23.6599 35.4033 23.7665 36.3846 23.9799C37.3873 22.5505 37.8886 21.2492 37.8886 20.0759C37.8886 19.1159 37.5686 18.3479 36.9286 17.7719C36.2886 17.1745 35.094 16.8439 33.3446 16.7799ZM25.6646 18.0919C22.3793 18.9665 19.35 19.9372 16.5766 21.0039C16.278 21.3239 15.9046 21.7505 15.4566 22.2839C17.91 21.5159 21.3126 20.1185 25.6646 18.0919ZM27.9366 31.4999C31.0726 29.5372 33.558 27.4679 35.3926 25.2919C34.7953 25.2279 34.1126 25.1959 33.3446 25.1959C28.8006 25.1959 23.3393 26.2092 16.9606 28.2359C13.718 29.2599 10.8593 30.4225 8.38462 31.7239C8.36329 31.7239 8.35262 31.7452 8.35262 31.7879L8.25662 31.7559C6.52862 32.6732 5.18462 33.5799 4.22462 34.4759C3.26462 35.3719 2.78462 36.1719 2.78462 36.8759C2.78462 37.4732 3.11529 37.9425 3.77662 38.2839C4.43796 38.6252 5.36596 38.7959 6.56062 38.7959C9.61129 38.7959 13.046 38.1452 16.8646 36.8439C20.6833 35.5425 24.374 33.7612 27.9366 31.4999ZM56.9146 23.6919C57.1493 23.4572 57.288 23.5319 57.3306 23.9159C57.3733 24.5345 57.1706 25.0785 56.7226 25.5479L56.6266 25.6439C56.6053 25.6652 56.3386 25.9212 55.8266 26.4119C55.336 26.9025 54.824 27.4145 54.2906 27.9479C53.7573 28.4812 53.1066 29.0892 52.3386 29.7719C51.5706 30.4545 50.8666 31.0519 50.2266 31.5639C49.5866 32.0972 48.968 32.5452 48.3706 32.9079C47.7733 33.2919 47.3253 33.4839 47.0266 33.4839C46.664 33.4839 46.312 33.2705 45.9706 32.8439C45.6506 32.4385 45.4906 32.0439 45.4906 31.6599C45.4906 30.4225 46.184 28.7585 47.5706 26.6679C44.1146 29.8892 41.9813 31.4999 41.1706 31.4999C40.7866 31.4999 40.424 31.3079 40.0826 30.9239C39.7413 30.5185 39.5706 30.0385 39.5706 29.4839C39.5706 28.5879 40.2106 27.2972 41.4906 25.6119C42.792 23.9265 44.232 22.4225 45.8106 21.0999C47.3893 19.7559 48.5733 19.0839 49.3626 19.0839C49.96 19.0839 50.5253 19.2439 51.0586 19.5639C51.6133 19.8625 51.9973 20.2145 52.2106 20.6199C52.9573 19.7452 53.544 19.1799 53.9706 18.9239C54.2906 18.7319 54.6746 18.8812 55.1226 19.3719C55.5066 19.7985 55.5706 20.0759 55.3146 20.2039C55.2933 20.2252 55.2613 20.2359 55.2186 20.2359C54.8346 20.2999 53.9066 21.1959 52.4346 22.9239C50.984 24.6305 49.6613 26.4119 48.4666 28.2679C47.272 30.1239 46.8453 31.2225 47.1866 31.5639C47.5066 31.9052 48.84 31.0519 51.1866 29.0039C53.5333 26.9345 55.4426 25.1639 56.9146 23.6919ZM41.1706 29.5799C41.4266 29.9212 42.8773 28.9825 45.5226 26.7639C48.1893 24.5452 49.96 22.9132 50.8346 21.8679C50.7493 21.6545 50.5573 21.4305 50.2586 21.1959C49.96 20.9399 49.6506 20.8119 49.3306 20.8119C48.6053 20.8119 47.528 21.4732 46.0986 22.7959C44.6693 24.1185 43.432 25.5052 42.3866 26.9559C41.3413 28.3852 40.936 29.2599 41.1706 29.5799ZM54.1281 33.2599C53.7655 33.2599 53.4348 33.0465 53.1361 32.6199C52.8375 32.2145 52.6881 31.8305 52.6881 31.4679C52.6881 30.6999 53.0295 29.6545 53.7121 28.3319C54.3948 26.9879 55.2695 25.6972 56.3361 24.4599C57.6375 22.9452 58.8961 21.6972 60.1121 20.7159C61.3495 19.7132 62.4161 19.1799 63.3121 19.1159C63.8881 19.0732 64.3681 19.2012 64.7521 19.4999C65.1575 19.7985 65.3601 20.2145 65.3601 20.7479C65.3601 21.3665 65.1041 22.0172 64.5921 22.6999C64.0801 23.3612 63.5895 23.6919 63.1201 23.6919C62.4801 23.6919 62.1281 23.5319 62.0641 23.2119C62.0428 23.0839 62.1068 22.9772 62.2561 22.8919C62.5335 22.6999 62.8215 22.3372 63.1201 21.8039C63.4401 21.2705 63.4935 20.9399 63.2801 20.8119C62.7255 20.4279 60.9655 21.8999 58.0001 25.2279C57.0188 26.3372 56.1868 27.4572 55.5041 28.5879C54.8215 29.7185 54.4801 30.5292 54.4801 31.0199C54.4801 31.2972 54.5761 31.4359 54.7681 31.4359C55.1308 31.4359 55.8241 31.1692 56.8481 30.6359C57.8721 30.0812 58.8215 29.5159 59.6961 28.9399C60.8481 28.1932 61.5628 27.7452 61.8401 27.5959C62.0748 27.4892 62.1068 27.5425 61.9361 27.7559C61.8935 27.8199 61.7868 27.9479 61.6161 28.1399C60.5921 29.2919 59.2908 30.4332 57.7121 31.5639C56.1548 32.6945 54.9601 33.2599 54.1281 33.2599ZM83.0856 7.59588C83.0856 8.19321 81.9016 9.68654 79.5336 12.0759C77.187 14.4439 74.691 16.7479 72.0456 18.9879C70.531 20.7159 69.027 22.5932 67.5336 24.6199C69.3683 22.9132 71.1923 21.4945 73.0056 20.3639C74.819 19.2332 76.3123 18.6679 77.4856 18.6679C78.019 18.6679 78.403 18.8599 78.6376 19.2439C78.8936 19.6279 79.0216 20.0225 79.0216 20.4279C79.0216 21.1959 77.443 22.3905 74.2856 24.0119C72.8776 24.7159 71.3203 25.3452 69.6136 25.8999C69.251 26.0279 68.995 26.2092 68.8456 26.4439C68.5896 26.9559 68.6323 27.7452 68.9736 28.8119C69.2083 29.5372 69.603 29.8999 70.1576 29.8999C71.1176 29.8999 72.4616 29.3345 74.1896 28.2039C75.9176 27.0732 77.2296 26.0385 78.1256 25.0999C78.4243 24.8012 78.6056 24.8545 78.6696 25.2599C78.755 25.8145 78.6056 26.3052 78.2216 26.7319C78.2003 26.7745 78.1683 26.8065 78.1256 26.8279C74.499 29.9425 71.7576 31.4999 69.9016 31.4999C69.3896 31.4999 68.9096 31.2865 68.4616 30.8599C68.0136 30.4332 67.6723 29.8785 67.4376 29.1959C67.139 28.2359 67.0003 27.4572 67.0216 26.8599C64.9523 28.9505 63.3416 31.0839 62.1896 33.2599C62.0403 33.5799 61.7203 33.5799 61.2296 33.2599C60.7176 32.8759 60.5043 32.4705 60.5896 32.0439C60.611 31.9799 60.643 31.9159 60.6856 31.8519C63.1603 27.7772 66.403 23.2972 70.4136 18.4119C71.075 17.6012 71.8323 16.7052 72.6856 15.7239C73.5603 14.7212 74.6803 13.4412 76.0456 11.8839C77.4323 10.3265 78.6696 9.04654 79.7576 8.04388C80.867 7.04121 81.6243 6.53988 82.0296 6.53988C82.7336 6.53988 83.0856 6.89188 83.0856 7.59588ZM76.5576 20.3639C76.4296 20.1932 76.0243 20.2572 75.3416 20.5559C74.6803 20.8332 73.8163 21.3345 72.7496 22.0599C71.7043 22.7639 70.6376 23.5852 69.5496 24.5239C71.2563 23.9692 72.6216 23.4252 73.6456 22.8919C74.627 22.3585 75.395 21.8572 75.9496 21.3879C76.5256 20.9185 76.7283 20.5772 76.5576 20.3639ZM88.0766 24.2359C88.5033 24.1719 88.706 24.1932 88.6846 24.2999C88.642 24.5345 88.0233 24.8759 86.8286 25.3239C86.082 25.6439 85.442 25.9425 84.9086 26.2199C84.4393 27.0519 83.938 27.8945 83.4046 28.7479C82.21 30.6465 80.962 32.1825 79.6606 33.3559C78.3806 34.5505 77.2713 35.1479 76.3326 35.1479C75.842 35.1479 75.3833 34.9559 74.9566 34.5719C74.53 34.2092 74.3166 33.7719 74.3166 33.2599C74.3166 32.5772 75.2446 31.4572 77.1006 29.8999C78.9566 28.3425 80.994 27.0199 83.2126 25.9319C83.8526 24.7372 84.386 23.6385 84.8126 22.6359C85.2393 21.6119 85.3673 21.0359 85.1966 20.9079C84.8766 20.6732 82.946 22.2839 79.4046 25.7399C78.6793 26.4225 77.7406 27.0945 76.5886 27.7559C75.9273 28.1185 75.458 28.2679 75.1806 28.2039C75.0526 28.1612 75.1273 28.0119 75.4046 27.7559C76.7273 26.5612 78.2633 25.0999 80.0126 23.3719C81.762 21.6439 83.074 20.3852 83.9486 19.5959C84.8233 18.8065 85.4526 18.4119 85.8366 18.4119C86.1993 18.4119 86.5406 18.6252 86.8606 19.0519C87.202 19.4572 87.3726 19.8519 87.3726 20.2359C87.3726 21.0892 86.7966 22.6359 85.6446 24.8759C86.5193 24.5772 87.33 24.3639 88.0766 24.2359ZM81.8366 28.2039L82.0286 27.9159C80.3006 29.0679 78.85 30.1772 77.6766 31.2439C76.5246 32.2892 76.066 32.9825 76.3006 33.3239C76.4713 33.5799 76.802 33.5479 77.2926 33.2279C77.8046 32.9079 78.37 32.3959 78.9886 31.6919C79.6073 30.9879 80.1406 30.3585 80.5886 29.8039C81.058 29.2492 81.474 28.7159 81.8366 28.2039ZM97.0561 19.1479C98.6775 19.0839 99.5095 19.2332 99.5521 19.5959C99.5735 19.9159 99.5201 20.2145 99.3921 20.4919C99.2641 20.7479 99.1148 20.8545 98.9441 20.8119C97.8561 20.5772 96.5868 20.5345 95.1361 20.6839C93.1521 23.1159 91.4668 25.3879 90.0801 27.4999C88.6935 29.6119 88.1388 30.8065 88.4161 31.0839C88.5655 31.2332 89.1308 30.9452 90.1121 30.2199C91.1148 29.4945 92.2348 28.6305 93.4721 27.6279C94.7095 26.6252 95.4241 26.0599 95.6161 25.9319C95.7441 25.8465 95.8081 25.8359 95.8081 25.8999C95.7868 26.1345 95.3495 26.7319 94.4961 27.6919C94.0055 28.2252 93.4188 28.8332 92.7361 29.5159C92.0535 30.1985 91.1895 30.9345 90.1441 31.7239C89.0988 32.5132 88.3095 32.9079 87.7761 32.9079C87.4348 32.9079 87.1148 32.7159 86.8161 32.3319C86.5175 31.9692 86.3681 31.5852 86.3681 31.1799C86.3681 30.0279 88.5761 26.6145 92.9921 20.9399C92.7148 20.9825 92.3841 21.0252 92.0001 21.0679C91.5308 21.1105 91.1468 20.8972 90.8481 20.4279C90.6135 19.9799 90.7095 19.7025 91.1361 19.5959C91.7761 19.4679 92.8321 19.3612 94.3041 19.2759L94.6561 18.8279C95.5735 17.6545 96.2881 16.7585 96.8001 16.1399C97.3121 15.4999 98.0268 14.6572 98.9441 13.6119C99.8615 12.5665 100.651 11.7772 101.312 11.2439C101.973 10.6892 102.528 10.3905 102.976 10.3479C103.232 10.3265 103.424 10.4119 103.552 10.6039C103.68 10.7745 103.744 10.9452 103.744 11.1159C103.744 11.8412 101.333 14.5292 96.5121 19.1799C96.5761 19.1799 96.6615 19.1799 96.7681 19.1799C96.8961 19.1585 96.9921 19.1479 97.0561 19.1479ZM108.498 23.6599C108.69 23.4679 108.786 23.5105 108.786 23.7879C108.765 24.4492 108.391 25.2172 107.666 26.0919L107.026 26.7319C104.487 29.0145 102.546 30.5932 101.202 31.4679C99.8579 32.3425 98.7699 32.7585 97.9379 32.7159C97.3832 32.6945 96.9032 32.4172 96.4979 31.8839C96.0925 31.3505 95.9005 30.7745 95.9219 30.1559C95.9645 28.9825 96.6259 27.4892 97.9059 25.6759C99.2072 23.8412 100.647 22.2625 102.226 20.9399C103.826 19.6172 105.063 18.9665 105.938 18.9879C106.365 19.0092 106.749 19.1905 107.09 19.5319C107.453 19.8519 107.623 20.2359 107.602 20.6839C107.559 21.6225 106.589 22.7852 104.69 24.1719C102.791 25.5372 100.754 26.6572 98.5779 27.5319C97.5539 29.1959 97.2659 30.2839 97.7139 30.7959C98.7165 31.9479 102.311 29.5692 108.498 23.6599ZM104.114 22.7639C105.245 21.9532 105.661 21.3985 105.362 21.0999C105.063 20.8012 104.391 21.0785 103.346 21.9319C102.322 22.7639 101.277 23.8519 100.21 25.1959C101.703 24.3852 103.005 23.5745 104.114 22.7639ZM119.995 23.5639C120.315 23.3505 120.475 23.3825 120.475 23.6599C120.432 24.0865 120.197 24.4919 119.771 24.8759C118.896 25.6225 117.936 25.9959 116.891 25.9959C115.419 25.9959 114.683 25.2172 114.683 23.6599C114.683 23.2545 114.704 22.9665 114.747 22.7959C113.531 23.6919 111.984 25.0785 110.107 26.9559C108.229 28.8119 106.437 30.9452 104.731 33.3559C104.453 33.7399 104.155 33.6439 103.835 33.0679C103.621 32.6839 103.515 32.2999 103.515 31.9159C103.515 31.1479 104.581 29.2492 106.715 26.2199C108.848 23.1905 110.576 20.8865 111.899 19.3079C112.176 18.9665 112.581 19.0199 113.115 19.4679C113.584 19.8732 113.744 20.1932 113.595 20.4279C113.552 20.5132 113.477 20.5665 113.371 20.5879C113.029 20.6732 111.195 22.9132 107.867 27.3079C108.912 26.3052 110.16 25.1532 111.611 23.8519C113.061 22.5505 114.245 21.4945 115.163 20.6839C116.08 19.8519 116.603 19.3505 116.731 19.1799C117.008 18.8385 117.403 18.8919 117.915 19.3399C118.384 19.7452 118.512 20.0759 118.299 20.3319L118.235 20.3959C117.893 20.6519 117.499 21.1319 117.051 21.8359C116.603 22.5399 116.379 23.1159 116.379 23.5639C116.379 24.0759 116.656 24.3319 117.211 24.3319C118.277 24.3319 119.205 24.0759 119.995 23.5639ZM141.008 23.6919C141.243 23.4572 141.382 23.5319 141.424 23.9159C141.467 24.5345 141.264 25.0785 140.816 25.5479L140.72 25.6439C140.699 25.6652 140.432 25.9212 139.92 26.4119C139.43 26.9025 138.918 27.4145 138.384 27.9479C137.851 28.4812 137.2 29.0892 136.432 29.7719C135.664 30.4545 134.96 31.0519 134.32 31.5639C133.68 32.0972 133.062 32.5452 132.464 32.9079C131.867 33.2919 131.419 33.4839 131.12 33.4839C130.758 33.4839 130.406 33.2705 130.064 32.8439C129.744 32.4385 129.584 32.0439 129.584 31.6599C129.584 30.4225 130.278 28.7585 131.664 26.6679C128.208 29.8892 126.075 31.4999 125.264 31.4999C124.88 31.4999 124.518 31.3079 124.176 30.9239C123.835 30.5185 123.664 30.0385 123.664 29.4839C123.664 28.5879 124.304 27.2972 125.584 25.6119C126.886 23.9265 128.326 22.4225 129.904 21.0999C131.483 19.7559 132.667 19.0839 133.456 19.0839C134.054 19.0839 134.619 19.2439 135.152 19.5639C135.707 19.8625 136.091 20.2145 136.304 20.6199C137.051 19.7452 137.638 19.1799 138.064 18.9239C138.384 18.7319 138.768 18.8812 139.216 19.3719C139.6 19.7985 139.664 20.0759 139.408 20.2039C139.387 20.2252 139.355 20.2359 139.312 20.2359C138.928 20.2999 138 21.1959 136.528 22.9239C135.078 24.6305 133.755 26.4119 132.56 28.2679C131.366 30.1239 130.939 31.2225 131.28 31.5639C131.6 31.9052 132.934 31.0519 135.28 29.0039C137.627 26.9345 139.536 25.1639 141.008 23.6919ZM125.264 29.5799C125.52 29.9212 126.971 28.9825 129.616 26.7639C132.283 24.5452 134.054 22.9132 134.928 21.8679C134.843 21.6545 134.651 21.4305 134.352 21.1959C134.054 20.9399 133.744 20.8119 133.424 20.8119C132.699 20.8119 131.622 21.4732 130.192 22.7959C128.763 24.1185 127.526 25.5052 126.48 26.9559C125.435 28.3852 125.03 29.2599 125.264 29.5799ZM136.782 33.4839C136.441 33.4839 136.174 33.2065 135.982 32.6519C135.769 32.1185 135.758 31.6812 135.95 31.3399C136.953 29.6119 138.265 27.5959 139.886 25.2919C141.529 22.9665 143.075 20.9612 144.526 19.2759C144.825 18.9132 145.209 19.0305 145.678 19.6279C146.083 20.1399 146.201 20.5025 146.03 20.7159C145.987 20.7799 145.923 20.8119 145.838 20.8119C145.433 20.8119 144.249 22.0385 142.286 24.4919C140.515 26.7745 139.705 27.9265 139.854 27.9479C139.854 27.9479 139.886 27.9265 139.95 27.8839C142.659 25.4519 145.134 23.3932 147.374 21.7079C149.614 20.0012 151.001 19.1479 151.534 19.1479C151.811 19.1479 152.025 19.2865 152.174 19.5639C152.451 19.7345 152.59 19.9265 152.59 20.1399C152.59 20.3319 152.003 21.2065 150.83 22.7639C149.678 24.2999 148.601 25.8465 147.598 27.4039C146.595 28.9399 146.254 29.8679 146.574 30.1879C146.894 30.5292 148.025 29.8679 149.966 28.2039C151.929 26.5185 153.571 25.0145 154.894 23.6919C155.129 23.4572 155.267 23.5319 155.31 23.9159C155.395 24.5345 155.214 25.0785 154.766 25.5479L154.67 25.6439C154.649 25.6652 154.425 25.8892 153.998 26.3159C153.571 26.7425 153.134 27.1692 152.686 27.5959C152.259 28.0225 151.726 28.5239 151.086 29.0999C150.446 29.6545 149.859 30.1452 149.326 30.5719C148.793 30.9985 148.259 31.3612 147.726 31.6599C147.193 31.9585 146.766 32.1079 146.446 32.1079C145.955 32.1079 145.529 31.9052 145.166 31.4999C144.825 31.0945 144.654 30.6892 144.654 30.2839C144.654 29.6012 145.059 28.6305 145.87 27.3719C146.702 26.1132 147.481 25.0039 148.206 24.0439C148.931 23.0839 149.241 22.5612 149.134 22.4759C148.921 22.3265 147.459 23.3825 144.75 25.6439C142.041 27.8839 140.249 29.5265 139.374 30.5719C139.118 30.8705 138.851 31.1799 138.574 31.4999C138.318 31.8412 138.105 32.1185 137.934 32.3319C137.785 32.5452 137.625 32.7479 137.454 32.9399C137.305 33.1319 137.177 33.2705 137.07 33.3559C136.963 33.4412 136.867 33.4839 136.782 33.4839ZM178.72 6.21988C179.04 5.89988 179.392 6.03854 179.776 6.63588C180.117 7.12654 180.192 7.46788 180 7.65988C179.936 7.70254 179.861 7.72388 179.776 7.72388C179.136 7.72388 175.349 12.3852 168.416 21.7079C166.603 24.1185 165.12 26.1132 163.968 27.6919C162.837 29.2492 161.632 30.9559 160.352 32.8119C159.093 34.6679 158.176 36.1505 157.6 37.2599C157.024 38.3692 156.8 39.1052 156.928 39.4679C156.949 39.5319 156.907 39.5745 156.8 39.5959C156.437 39.6599 156.075 39.5319 155.712 39.2119C155.477 38.9985 155.36 38.7532 155.36 38.4759C155.36 37.7719 156.661 35.5105 159.264 31.6919C161.888 27.8945 165.461 23.0945 169.984 17.2919C163.947 22.9665 159.765 26.7959 157.44 28.7799C155.115 30.7639 153.557 31.7559 152.768 31.7559C152.384 31.7559 152.021 31.5639 151.68 31.1799C151.339 30.7745 151.168 30.2945 151.168 29.7399C151.168 28.8439 151.808 27.5639 153.088 25.8999C154.389 24.2145 155.829 22.7105 157.408 21.3879C158.987 20.0652 160.171 19.4039 160.96 19.4039C161.579 19.4039 162.091 19.6172 162.496 20.0439C162.923 20.4492 163.2 20.9079 163.328 21.4199L171.264 13.8359L178.72 6.21988ZM152.864 29.8679C152.992 30.0385 153.387 29.8999 154.048 29.4519C154.731 29.0039 155.744 28.2145 157.088 27.0839C158.432 25.9319 160.107 24.4172 162.112 22.5399C161.856 21.6225 161.451 21.1639 160.896 21.1639C160.192 21.1639 159.136 21.8359 157.728 23.1799C156.341 24.5239 155.136 25.9105 154.112 27.3399C153.088 28.7692 152.672 29.6119 152.864 29.8679ZM222.133 2.57188C222.368 2.63588 222.506 2.82788 222.549 3.14788C222.592 3.44654 222.517 3.65988 222.325 3.78788C221.237 4.49188 219.285 6.11321 216.469 8.65188V8.68388C216.448 9.11054 216.266 9.46254 215.925 9.73988C215.605 9.99588 215.296 10.0812 214.997 9.99588C210.304 14.3692 206.73 18.0812 204.277 21.1319C203.701 21.8359 203.445 22.3052 203.509 22.5399C203.594 22.8599 203.584 23.1585 203.477 23.4359C203.392 23.6919 203.232 23.8199 202.997 23.8199C202.762 23.8199 202.528 23.6705 202.293 23.3719C202.058 23.0519 202.005 22.6145 202.133 22.0599C202.581 20.0972 206.688 15.4785 214.453 8.20388C214.282 7.54254 213.92 7.01988 213.365 6.63588C212.832 6.25188 212.149 6.05988 211.317 6.05988C209.226 6.05988 206.912 6.43321 204.373 7.17988C201.856 7.92654 199.36 8.93988 196.885 10.2199C194.41 11.4785 191.989 13.0039 189.621 14.7959C187.274 16.5665 185.205 18.4332 183.413 20.3959C181.621 22.3585 180.181 24.4705 179.093 26.7319C178.005 28.9719 177.461 31.1372 177.461 33.2279C177.461 35.0839 177.984 36.5452 179.029 37.6119C180.096 38.6785 181.546 39.2119 183.381 39.2119C186.432 39.2119 189.76 38.5612 193.365 37.2599C196.992 35.9585 200.298 34.4012 203.285 32.5879C206.293 30.7959 209.194 28.7799 211.989 26.5399C212.138 26.4332 212.224 26.5185 212.245 26.7959C212.288 27.4145 211.989 27.9905 211.349 28.5239C206.976 32.1079 202.176 35.0625 196.949 37.3879C191.744 39.7345 187.221 40.9079 183.381 40.9079C181.098 40.9079 179.232 40.1932 177.781 38.7639C176.352 37.3559 175.637 35.5105 175.637 33.2279C175.637 30.9665 176.202 28.6305 177.333 26.2199C178.485 23.8092 180 21.5692 181.877 19.4999C183.776 17.4092 185.962 15.4252 188.437 13.5479C190.933 11.6705 193.493 10.0705 196.117 8.74788C198.741 7.40388 201.386 6.34788 204.053 5.57988C206.741 4.79054 209.194 4.39588 211.413 4.39588C213.76 4.39588 215.328 5.15321 216.117 6.66788C218.762 4.23588 220.533 2.68921 221.429 2.02788C221.557 1.92121 221.696 1.91054 221.845 1.99588C222.016 2.05988 222.112 2.25188 222.133 2.57188ZM227.352 23.6919C227.587 23.4572 227.725 23.5319 227.768 23.9159C227.811 24.5345 227.608 25.0785 227.16 25.5479L227.064 25.6439C227.043 25.6652 226.776 25.9212 226.264 26.4119C225.773 26.9025 225.261 27.4145 224.728 27.9479C224.195 28.4812 223.544 29.0892 222.776 29.7719C222.008 30.4545 221.304 31.0519 220.664 31.5639C220.024 32.0972 219.405 32.5452 218.808 32.9079C218.211 33.2919 217.763 33.4839 217.464 33.4839C217.101 33.4839 216.749 33.2705 216.408 32.8439C216.088 32.4385 215.928 32.0439 215.928 31.6599C215.928 30.4225 216.621 28.7585 218.008 26.6679C214.552 29.8892 212.419 31.4999 211.608 31.4999C211.224 31.4999 210.861 31.3079 210.52 30.9239C210.179 30.5185 210.008 30.0385 210.008 29.4839C210.008 28.5879 210.648 27.2972 211.928 25.6119C213.229 23.9265 214.669 22.4225 216.248 21.0999C217.827 19.7559 219.011 19.0839 219.8 19.0839C220.397 19.0839 220.963 19.2439 221.496 19.5639C222.051 19.8625 222.435 20.2145 222.648 20.6199C223.395 19.7452 223.981 19.1799 224.408 18.9239C224.728 18.7319 225.112 18.8812 225.56 19.3719C225.944 19.7985 226.008 20.0759 225.752 20.2039C225.731 20.2252 225.699 20.2359 225.656 20.2359C225.272 20.2999 224.344 21.1959 222.872 22.9239C221.421 24.6305 220.099 26.4119 218.904 28.2679C217.709 30.1239 217.283 31.2225 217.624 31.5639C217.944 31.9052 219.277 31.0519 221.624 29.0039C223.971 26.9345 225.88 25.1639 227.352 23.6919ZM211.608 29.5799C211.864 29.9212 213.315 28.9825 215.96 26.7639C218.627 24.5452 220.397 22.9132 221.272 21.8679C221.187 21.6545 220.995 21.4305 220.696 21.1959C220.397 20.9399 220.088 20.8119 219.768 20.8119C219.043 20.8119 217.965 21.4732 216.536 22.7959C215.107 24.1185 213.869 25.5052 212.824 26.9559C211.779 28.3852 211.373 29.2599 211.608 29.5799ZM233.494 19.1479C235.115 19.0839 235.947 19.2332 235.99 19.5959C236.011 19.9159 235.958 20.2145 235.83 20.4919C235.702 20.7479 235.552 20.8545 235.382 20.8119C234.294 20.5772 233.024 20.5345 231.574 20.6839C229.59 23.1159 227.904 25.3879 226.518 27.4999C225.131 29.6119 224.576 30.8065 224.854 31.0839C225.003 31.2332 225.568 30.9452 226.55 30.2199C227.552 29.4945 228.672 28.6305 229.91 27.6279C231.147 26.6252 231.862 26.0599 232.054 25.9319C232.182 25.8465 232.246 25.8359 232.246 25.8999C232.224 26.1345 231.787 26.7319 230.934 27.6919C230.443 28.2252 229.856 28.8332 229.174 29.5159C228.491 30.1985 227.627 30.9345 226.582 31.7239C225.536 32.5132 224.747 32.9079 224.214 32.9079C223.872 32.9079 223.552 32.7159 223.254 32.3319C222.955 31.9692 222.806 31.5852 222.806 31.1799C222.806 30.0279 225.014 26.6145 229.43 20.9399C229.152 20.9825 228.822 21.0252 228.438 21.0679C227.968 21.1105 227.584 20.8972 227.286 20.4279C227.051 19.9799 227.147 19.7025 227.574 19.5959C228.214 19.4679 229.27 19.3612 230.742 19.2759L231.094 18.8279C232.011 17.6545 232.726 16.7585 233.238 16.1399C233.75 15.4999 234.464 14.6572 235.382 13.6119C236.299 12.5665 237.088 11.7772 237.75 11.2439C238.411 10.6892 238.966 10.3905 239.414 10.3479C239.67 10.3265 239.862 10.4119 239.99 10.6039C240.118 10.7745 240.182 10.9452 240.182 11.1159C240.182 11.8412 237.771 14.5292 232.95 19.1799C233.014 19.1799 233.099 19.1799 233.206 19.1799C233.334 19.1585 233.43 19.1479 233.494 19.1479Z" fill="#B25829"/>
</svg>
