<svg width="25" height="25" viewBox="0 0 25 25" fill="none" xmlns="http://www.w3.org/2000/svg">
<path d="M24.649 22.8886L20.0142 18.2886C21.8133 16.0441 22.6845 13.1952 22.4488 10.3278C22.2131 7.46025 20.8883 4.7921 18.7469 2.87193C16.6055 0.951758 13.8102 -0.0744868 10.9358 0.0042137C8.06138 0.0829142 5.32636 1.26058 3.2931 3.29505C1.25983 5.32953 0.082865 8.06617 0.0042112 10.9423C-0.0744426 13.8184 0.951193 16.6153 2.87022 18.758C4.78926 20.9007 7.45582 22.2263 10.3216 22.4621C13.1874 22.698 16.0346 21.8263 18.2778 20.0261L22.875 24.6261C22.9912 24.7433 23.1293 24.8363 23.2816 24.8997C23.4338 24.9632 23.5971 24.9959 23.762 24.9959C23.9269 24.9959 24.0902 24.9632 24.2424 24.8997C24.3947 24.8363 24.5328 24.7433 24.649 24.6261C24.8741 24.393 25 24.0816 25 23.7574C25 23.4332 24.8741 23.1217 24.649 22.8886ZM11.2694 20.0261C9.53987 20.0261 7.84915 19.5129 6.41107 18.5515C4.973 17.59 3.85216 16.2235 3.19028 14.6246C2.52841 13.0258 2.35523 11.2664 2.69265 9.56909C3.03007 7.87175 3.86294 6.31265 5.08592 5.08894C6.3089 3.86523 7.86707 3.03187 9.5634 2.69425C11.2597 2.35663 13.018 2.52991 14.6159 3.19218C16.2138 3.85445 17.5796 4.97596 18.5405 6.41489C19.5014 7.85382 20.0142 9.54554 20.0142 11.2761C20.0142 13.5968 19.0929 15.8224 17.4529 17.4633C15.813 19.1043 13.5887 20.0261 11.2694 20.0261Z" fill="#442920"/>
</svg>
