<svg width="51" height="50" viewBox="0 0 51 50" fill="none" xmlns="http://www.w3.org/2000/svg">
<path d="M11.5568 7C9.79886 7 8.375 8.42386 8.375 10.1818V38.8182C8.375 40.5761 9.79886 42 11.5568 42H40.1932C41.9511 42 43.375 40.5761 43.375 38.8182V10.1818C43.375 8.42386 41.9511 7 40.1932 7H11.5568ZM25.8719 11.7727C29.5739 11.7727 32.5835 14.7839 32.5835 18.4844C32.5835 22.1848 29.5723 25.1898 25.8719 25.1898C22.1714 25.1898 19.1634 22.1801 19.1634 18.4813C19.1634 14.7808 22.1714 11.7711 25.8719 11.7727ZM25.8719 15.7811C24.3844 15.7811 23.1748 16.9922 23.1748 18.4813C23.1748 19.9688 24.3844 21.1784 25.8719 21.1784C27.361 21.1784 28.5721 19.9688 28.5721 18.4813C28.5721 16.9922 27.361 15.7811 25.8719 15.7811ZM20.776 25.2457C21.021 25.2856 21.2609 25.3753 21.4845 25.5161C24.1524 27.1961 27.5944 27.1961 30.2655 25.5161C31.158 24.9529 32.3358 25.2217 32.8974 26.1158C33.4574 27.0099 33.1918 28.1922 32.2977 28.7538C31.1188 29.4936 29.8368 30.0176 28.5099 30.3199L32.1578 33.9678C32.904 34.7123 32.904 35.9218 32.1578 36.668C31.4117 37.4141 30.2038 37.4141 29.4577 36.668L25.875 33.0853L22.2923 36.668C21.9185 37.0418 21.4291 37.2273 20.9407 37.2273C20.4523 37.2273 19.966 37.0418 19.5922 36.668C18.846 35.9234 18.8445 34.7108 19.589 33.9647L23.2369 30.3199C21.9085 30.0176 20.6281 29.4905 19.4492 28.7507C18.5567 28.1891 18.2894 27.0099 18.8526 26.1158C19.2738 25.4452 20.0409 25.1261 20.776 25.2457Z" fill="#B25829"/>
</svg>
