<svg width="26" height="26" viewBox="0 0 26 26" fill="none" xmlns="http://www.w3.org/2000/svg">
<path d="M17.6161 13.8867C18.8409 12.923 19.7348 11.6016 20.1736 10.1063C20.6125 8.6109 20.5743 7.01594 20.0644 5.5433C19.5545 4.07065 18.5983 2.79354 17.3288 1.88964C16.0593 0.985738 14.5397 0.5 12.9812 0.5C11.4228 0.5 9.90316 0.985738 8.63366 1.88964C7.36416 2.79354 6.40796 4.07065 5.89809 5.5433C5.38822 7.01594 5.35003 8.6109 5.78884 10.1063C6.22765 11.6016 7.12163 12.923 8.34641 13.8867C6.24772 14.7275 4.41654 16.122 3.04808 17.9217C1.67963 19.7214 0.825205 21.8587 0.575895 24.1058C0.557848 24.2698 0.572293 24.4358 0.618402 24.5943C0.664512 24.7528 0.741384 24.9006 0.844629 25.0294C1.05314 25.2894 1.35642 25.456 1.68775 25.4925C2.01908 25.5289 2.35132 25.4322 2.61138 25.2237C2.87143 25.0152 3.03801 24.7119 3.07445 24.3806C3.34878 21.9385 4.51323 19.6831 6.34534 18.0452C8.17745 16.4074 10.5488 15.502 13.0062 15.502C15.4637 15.502 17.835 16.4074 19.6671 18.0452C21.4992 19.6831 22.6637 21.9385 22.938 24.3806C22.972 24.6876 23.1184 24.9711 23.3491 25.1764C23.5799 25.3817 23.8784 25.4943 24.1873 25.4925H24.3247C24.6522 25.4548 24.9515 25.2892 25.1574 25.0318C25.3633 24.7744 25.4592 24.446 25.4241 24.1182C25.1736 21.8648 24.3145 19.722 22.9391 17.9196C21.5636 16.1171 19.7235 14.723 17.6161 13.8867V13.8867ZM12.9812 12.9997C11.9929 12.9997 11.0268 12.7066 10.205 12.1575C9.38322 11.6084 8.74273 10.828 8.36451 9.91486C7.98629 9.00175 7.88733 7.997 8.08014 7.02765C8.27296 6.05831 8.74888 5.16791 9.44774 4.46905C10.1466 3.77019 11.037 3.29426 12.0064 3.10144C12.9757 2.90863 13.9805 3.00759 14.8936 3.38581C15.8067 3.76403 16.5871 4.40452 17.1362 5.22629C17.6853 6.04807 17.9784 7.01421 17.9784 8.00254C17.9784 9.32786 17.4519 10.5989 16.5147 11.536C15.5776 12.4732 14.3066 12.9997 12.9812 12.9997Z" fill="#442920"/>
</svg>
