<svg width="45" height="36" viewBox="0 0 45 36" fill="none" xmlns="http://www.w3.org/2000/svg">
<g clip-path="url(#clip0_741_5973)">
<path d="M38.1914 15.3242C38.1914 7.33506 38.2586 0.731435 38.3409 0.649436C38.4228 0.567212 39.7335 0.5 41.2534 0.5H44.0165V15.1747V29.8495H41.104H38.1914V15.3242Z" fill="#151F35"/>
<path d="M25.8691 31.8657V17.0789V2.29224H28.7816H31.6942V17.0789V31.8657H28.7816H25.8691Z" fill="#151F35"/>
<path d="M13.4354 33.5461L13.3779 18.9273L13.3203 4.30859H16.348H19.3757L19.3181 18.9273L19.2605 33.5461H16.348H13.4354Z" fill="#151F35"/>
<path d="M1.00195 35.4505V20.7758V6.10107H3.9145H6.82703V20.7758V35.4505H3.9145H1.00195Z" fill="#151F35"/>
</g>
<defs>
<clipPath id="clip0_741_5973">
<rect width="43.1417" height="35" fill="white" transform="translate(0.929688 0.5)"/>
</clipPath>
</defs>
</svg>
