<svg width="26" height="26" viewBox="0 0 26 26" fill="none" xmlns="http://www.w3.org/2000/svg">
<path d="M10.8182 23.3636C10.8182 23.9661 10.3298 24.4545 9.72727 24.4545C9.12478 24.4545 8.63636 23.9661 8.63636 23.3636C8.63636 22.7611 9.12478 22.2727 9.72727 22.2727C10.3298 22.2727 10.8182 22.7611 10.8182 23.3636Z" fill="#442920"/>
<path d="M22.8182 23.3636C22.8182 23.9661 22.3298 24.4545 21.7273 24.4545C21.1248 24.4545 20.6364 23.9661 20.6364 23.3636C20.6364 22.7611 21.1248 22.2727 21.7273 22.2727C22.3298 22.2727 22.8182 22.7611 22.8182 23.3636Z" fill="#442920"/>
<path d="M1 0.54541C0.447715 0.54541 0 0.993125 0 1.54541C0 2.09769 0.447715 2.54541 1 2.54541V0.54541ZM5.36364 1.54541L6.34419 1.34915C6.25065 0.881795 5.84026 0.54541 5.36364 0.54541V1.54541ZM8.28727 16.1527L9.26811 15.9579L9.26783 15.9564L8.28727 16.1527ZM10.4691 17.909V16.909C10.4627 16.909 10.4563 16.9091 10.4499 16.9092L10.4691 17.909ZM21.0727 17.909L21.0919 16.9092C21.0855 16.9091 21.0791 16.909 21.0727 16.909V17.909ZM23.2545 16.1527L24.2354 16.3475L24.2368 16.34L23.2545 16.1527ZM25 6.99996L25.9823 7.18728C26.0381 6.89453 25.9605 6.59214 25.7705 6.36251C25.5805 6.13288 25.298 5.99996 25 5.99996V6.99996ZM6.45455 5.99996C5.90226 5.99996 5.45455 6.44767 5.45455 6.99996C5.45455 7.55224 5.90226 7.99996 6.45455 7.99996V5.99996ZM9.81818 23.3636C9.81818 23.4138 9.77748 23.4545 9.72727 23.4545V25.4545C10.882 25.4545 11.8182 24.5184 11.8182 23.3636H9.81818ZM9.72727 23.4545C9.67706 23.4545 9.63636 23.4138 9.63636 23.3636H7.63636C7.63636 24.5184 8.5725 25.4545 9.72727 25.4545V23.4545ZM9.63636 23.3636C9.63636 23.3134 9.67706 23.2727 9.72727 23.2727V21.2727C8.5725 21.2727 7.63636 22.2088 7.63636 23.3636H9.63636ZM9.72727 23.2727C9.77748 23.2727 9.81818 23.3134 9.81818 23.3636H11.8182C11.8182 22.2088 10.882 21.2727 9.72727 21.2727V23.2727ZM21.8182 23.3636C21.8182 23.4138 21.7775 23.4545 21.7273 23.4545V25.4545C22.8821 25.4545 23.8182 24.5184 23.8182 23.3636H21.8182ZM21.7273 23.4545C21.6771 23.4545 21.6364 23.4138 21.6364 23.3636H19.6364C19.6364 24.5184 20.5725 25.4545 21.7273 25.4545V23.4545ZM21.6364 23.3636C21.6364 23.3134 21.6771 23.2727 21.7273 23.2727V21.2727C20.5725 21.2727 19.6364 22.2088 19.6364 23.3636H21.6364ZM21.7273 23.2727C21.7775 23.2727 21.8182 23.3134 21.8182 23.3636H23.8182C23.8182 22.2088 22.8821 21.2727 21.7273 21.2727V23.2727ZM1 2.54541H5.36364V0.54541H1V2.54541ZM4.38308 1.74167L7.30672 16.3489L9.26783 15.9564L6.34419 1.34915L4.38308 1.74167ZM7.30643 16.3475C7.45191 17.0799 7.85038 17.7379 8.43207 18.2062L9.68621 16.6482C9.47015 16.4743 9.32215 16.2299 9.26811 15.9579L7.30643 16.3475ZM8.43207 18.2062C9.01377 18.6744 9.74163 18.9232 10.4883 18.9089L10.4499 16.9092C10.1726 16.9145 9.90227 16.8222 9.68621 16.6482L8.43207 18.2062ZM10.4691 18.909H21.0727V16.909H10.4691V18.909ZM21.0536 18.9089C21.8002 18.9232 22.528 18.6744 23.1097 18.2062L21.8556 16.6482C21.6396 16.8222 21.3692 16.9145 21.0919 16.9092L21.0536 18.9089ZM23.1097 18.2062C23.6914 17.7379 24.0899 17.0799 24.2354 16.3475L22.2737 15.9579C22.2197 16.2299 22.0717 16.4743 21.8556 16.6482L23.1097 18.2062ZM24.2368 16.34L25.9823 7.18728L24.0177 6.81263L22.2722 15.9654L24.2368 16.34ZM25 5.99996H6.45455V7.99996H25V5.99996Z" fill="#442920"/>
</svg>
