<svg width="50" height="50" viewBox="0 0 50 50" fill="none" xmlns="http://www.w3.org/2000/svg">
<path fill-rule="evenodd" clip-rule="evenodd" d="M43 24.5C43 34.165 35.165 42 25.5 42C15.835 42 8 34.165 8 24.5C8 14.835 15.835 7 25.5 7C35.165 7 43 14.835 43 24.5ZM15.6125 24.5927L19.8833 25.9842C19.9553 25.9968 20.0292 25.9923 20.0992 25.9711L20.1017 25.9695C21.0862 25.3478 29.8739 19.7984 30.3813 19.6118C30.4612 19.5876 30.5207 19.6148 30.505 19.6701C30.3015 20.3835 22.6561 27.1794 22.6561 27.1794C22.6561 27.1794 22.5817 27.2641 22.5953 27.3325C22.5984 27.3588 22.6071 27.3841 22.6208 27.4067C22.6346 27.4294 22.653 27.4488 22.6749 27.4637C23.6451 28.1127 28.0359 31.0635 29.3062 32.1562C29.4204 32.2671 29.5558 32.3538 29.7042 32.4112C29.8527 32.4687 30.0112 32.4956 30.1703 32.4905C30.8176 32.4661 30.9983 31.755 30.9983 31.755C30.9983 31.755 34.0182 19.603 34.1191 17.9748C34.123 17.9131 34.1274 17.86 34.1314 17.8118C34.1377 17.7355 34.143 17.6713 34.1438 17.6041C34.149 17.4773 34.1366 17.3504 34.1067 17.2271C34.0916 17.1573 34.0581 17.0927 34.0098 17.0401C33.9615 16.9874 33.9001 16.9485 33.8319 16.9274C33.5559 16.8226 33.0881 16.9802 33.0881 16.9802C33.0881 16.9802 16.519 22.9356 15.5726 23.5952C15.3685 23.7368 15.3002 23.8192 15.2664 23.916C15.102 24.3856 15.6125 24.5927 15.6125 24.5927Z" fill="#B25829"/>
</svg>
