<svg width="50" height="50" viewBox="0 0 50 50" fill="none" xmlns="http://www.w3.org/2000/svg">
<path d="M37.1667 7H13.8333C10.6119 7 8 9.61187 8 12.8333V36.1667C8 39.3881 10.6119 42 13.8333 42H37.1667C40.3881 42 43 39.3881 43 36.1667V12.8333C43 9.61187 40.3881 7 37.1667 7ZM33.0272 32.5208C32.1383 29.7471 29.9231 27.6011 26.9933 27.3095V32.5208H26.5413C18.57 32.5208 14.0229 27.0462 13.8333 17.9375H17.827C17.9582 24.6232 20.9019 27.4553 23.2337 28.0394V17.9375H26.9941V23.7038C29.2968 23.4558 31.7161 20.8279 32.5321 17.9375H36.2924C35.666 21.4995 33.0425 24.1267 31.1766 25.2073C33.0418 26.083 36.0299 28.3748 37.1667 32.5208H33.0272Z" fill="#B25829"/>
</svg>
