<svg width="51" height="50" viewBox="0 0 51 50" fill="none" xmlns="http://www.w3.org/2000/svg">
<path d="M26.375 7C16.7106 7 8.875 14.8356 8.875 24.5C8.875 27.783 9.79716 30.8438 11.3701 33.4693L9.03166 42L17.7446 39.7128C20.2928 41.1615 23.2345 42 26.375 42C36.0394 42 43.875 34.1644 43.875 24.5C43.875 14.8356 36.0394 7 26.375 7ZM20.385 16.3368C20.6694 16.3368 20.9616 16.335 21.2139 16.3481C21.526 16.3554 21.8656 16.3783 22.1908 17.0972C22.5773 17.9518 23.4188 20.0957 23.5267 20.313C23.6346 20.5303 23.7111 20.7863 23.5609 21.0706C23.418 21.3623 23.3436 21.5388 23.1336 21.797C22.9163 22.0478 22.6782 22.3593 22.4814 22.5489C22.2641 22.7662 22.0397 23.0045 22.2905 23.4376C22.5414 23.8707 23.4125 25.2906 24.7002 26.4368C26.3554 27.9156 27.7519 28.37 28.1865 28.5873C28.6211 28.8046 28.8728 28.7708 29.1236 28.4791C29.3817 28.1947 30.2077 27.2189 30.4993 26.7843C30.7837 26.3498 31.074 26.425 31.4678 26.5679C31.8674 26.7108 33.9983 27.7605 34.4329 27.9778C34.8674 28.1951 35.1523 28.3026 35.2617 28.4791C35.374 28.6614 35.3741 29.5292 35.0139 30.5413C34.6537 31.5519 32.8849 32.5292 32.0916 32.5977C31.2909 32.6721 30.5437 32.9576 26.8877 31.5182C22.4777 29.7814 19.6965 25.2645 19.4792 24.9728C19.262 24.6884 17.7133 22.6244 17.7133 20.4953C17.7133 18.3588 18.8335 17.3125 19.2257 16.8779C19.6253 16.4433 20.0933 16.3368 20.385 16.3368Z" fill="#B25829"/>
</svg>
