<?xml version="1.0" encoding="UTF-8" standalone="no"?> <!-- Created with Inkscape (http://www.inkscape.org/) --> <svg xmlns:dc="http://purl.org/dc/elements/1.1/" xmlns:cc="http://creativecommons.org/ns#" xmlns:rdf="http://www.w3.org/1999/02/22-rdf-syntax-ns#" xmlns:svg="http://www.w3.org/2000/svg" xmlns="http://www.w3.org/2000/svg" xmlns:sodipodi="http://sodipodi.sourceforge.net/DTD/sodipodi-0.dtd" xmlns:inkscape="http://www.inkscape.org/namespaces/inkscape" width="1000" height="399.30359" viewBox="0 0 264.58333 105.64908" id="svg4153" inkscape:version="0.92.2 (5c3e80d, 2017-08-06)" sodipodi:docname="Yandex Pay logo.svg"> <defs id="defs4147"></defs> <metadata id="metadata4150"></metadata> <g inkscape:label="Layer 1" inkscape:groupmode="layer" id="layer1" transform="translate(-10.991484,-107.16101)"> <g id="g4258" transform="matrix(2.6618884,0,0,2.6618884,-127.82865,-266.8707)" style="stroke-width:0.37567315"> <path inkscape:connector-curvature="0" id="path4170" d="M 91.840519,160.35843 A 19.844761,19.844761 0 0 1 71.995758,180.20319 19.844761,19.844761 0 0 1 52.150997,160.35843 19.844761,19.844761 0 0 1 71.995758,140.51367 19.844761,19.844761 0 0 1 91.840519,160.35843 Z" style="opacity:1;fill:#fb3f1d;fill-opacity:1;stroke:none;stroke-width:6.76211596;stroke-linecap:square;stroke-linejoin:miter;stroke-miterlimit:4;stroke-dasharray:none;stroke-opacity:0.60747663"></path> <path sodipodi:nodetypes="ccccsssccssscc" inkscape:connector-curvature="0" id="rect4174" d="m 102.38703,148.42864 v 23.72414 h 4.05919 v -8.35453 h 1.83657 c 5.20498,0 9.07904,-2.46205 9.07904,-7.6848 0,-5.22276 -3.63783,-7.68481 -8.41758,-7.68481 z m 4.05919,3.27371 h 2.49803 c 3.28453,0 4.21215,2.22039 4.21215,4.4111 0,2.1907 -0.92762,4.4111 -4.21215,4.4111 h -2.49803 z" style="opacity:1;fill:#000000;fill-opacity:1;stroke:none;stroke-width:6.76211596;stroke-linecap:square;stroke-linejoin:miter;stroke-miterlimit:4;stroke-dasharray:none;stroke-opacity:0.60747663"></path> <path inkscape:connector-curvature="0" id="path4209" d="m 91.670008,160.29071 a 19.660151,19.660151 0 0 1 -19.660151,19.66015 19.660151,19.660151 0 0 1 -19.66015,-19.66015 19.660151,19.660151 0 0 1 19.66015,-19.66015 19.660151,19.660151 0 0 1 19.660151,19.66015 z" style="opacity:1;fill:#fb3f1d;fill-opacity:1;stroke:none;stroke-width:6.76211643;stroke-linecap:square;stroke-linejoin:miter;stroke-miterlimit:4;stroke-dasharray:none;stroke-opacity:0.60747663"></path> <path id="path4" d="m 78.822129,172.07388 h -4.102975 v -20.37881 h -1.830875 c -3.356604,0 -5.119852,1.6948 -5.119852,4.20442 0,2.84775 1.220583,4.1706 3.729377,5.86622 l 2.068394,1.39048 -5.967663,8.91768 h -4.441933 l 5.357371,-7.96843 c -3.085272,-2.20448 -4.814707,-4.3405 -4.814707,-7.96843 0,-4.5442 3.153724,-7.62947 9.1552,-7.62947 h 5.967663 z" inkscape:connector-curvature="0" style="fill:#ffffff;stroke-width:0.89696681"></path> <path inkscape:connector-curvature="0" id="rect4213" d="m 123.43457,148.42864 -6.21357,23.72414 h 3.39204 l 1.31775,-5.11287 h 7.35717 l 1.29605,5.11287 h 4.19251 l -6.21358,-23.72414 z m 2.20504,4.2168 2.81894,11.12077 h -5.6844 z" style="opacity:1;fill:#000000;fill-opacity:1;stroke:none;stroke-width:6.76211596;stroke-linecap:square;stroke-linejoin:miter;stroke-miterlimit:4;stroke-dasharray:none;stroke-opacity:0.60747663"></path> <path sodipodi:nodetypes="cccccccccc" inkscape:connector-curvature="0" id="rect4223" d="m 133.45749,148.42864 7.01559,13.59733 v 10.12681 h 4.05918 v -10.12681 l 7.01559,-13.59733 h -3.89278 l -4.90203,10.00233 -4.90254,-10.00233 z" style="opacity:1;fill:#000000;fill-opacity:1;stroke:none;stroke-width:6.76211596;stroke-linecap:square;stroke-linejoin:miter;stroke-miterlimit:4;stroke-dasharray:none;stroke-opacity:0.60747663"></path> </g> </g> </svg> 